<?xml version="1.0" encoding="UTF-8"?>
<!DOCTYPE svg PUBLIC "-//W3C//DTD SVG 1.1//EN" "http://www.w3.org/Graphics/SVG/1.1/DTD/svg11.dtd">
<!-- Creator: CorelDRAW 2020 (64-Bit) -->
<svg xmlns="http://www.w3.org/2000/svg" xml:space="preserve" width="160mm" height="160mm" version="1.1" style="shape-rendering:geometricPrecision; text-rendering:geometricPrecision; image-rendering:optimizeQuality; fill-rule:evenodd; clip-rule:evenodd"
viewBox="0 0 16000 16000"
 xmlns:xlink="http://www.w3.org/1999/xlink"
 xmlns:xodm="http://www.corel.com/coreldraw/odm/2003">
 <defs>
  <style type="text/css">
   <![CDATA[
    .fil1 {fill:#3C0A00}
    .fil0 {fill:#500D00;fill-rule:nonzero}
   ]]>
  </style>
 </defs>
 <g id="Layer_x0020_1">
  <metadata id="CorelCorpID_0Corel-Layer"/>
  <g id="_1996973602832">
   <g>
    <path class="fil0" d="M3063.97 13584.42l475.81 0 182.45 639.98 189.13 -639.98 484.06 0 0 145.65 -51.99 0c-28.04,0 -47.59,5.66 -58.41,17.5 -10.81,11.84 -16.2,34.23 -16.2,66.9l0 597c0,26.26 1.54,42.46 4.63,48.91 4.37,10.02 10.81,17.23 18.78,21.09 11.06,6.17 25.48,9.26 43.75,9.26l59.44 0 0 145.39 -505.93 0 0 -145.39 39.38 0c28.56,0 47.86,-2.31 57.9,-6.95 10.03,-4.37 17.49,-11.32 22.39,-20.58 4.63,-9.27 7.19,-26.51 7.19,-51.73l0 -646.91 -256.55 871.56 -145.39 0 -248.08 -843.52 0 639.2c0,14.68 2.58,26 7.97,33.97 5.15,7.99 12.88,14.16 22.65,18.53 9.78,4.12 25.48,6.43 47.1,6.43l50.45 0 0 145.39 -430.53 0 0 -145.39 42.2 0c26.76,0 45.03,-2.57 54.82,-7.2 9.76,-4.9 16.97,-12.35 21.86,-22.65 4.64,-10.29 7.21,-29.34 7.21,-56.86l0 -589.55c0,-27.28 -1.79,-44.77 -5.41,-52.74 -4.37,-11.07 -11.32,-19.31 -20.33,-24.19 -9,-5.15 -23.41,-7.47 -42.97,-7.47l-57.38 0 0 -145.65zm1846.12 0l235.96 0 316.02 811.87c16.98,43.24 32.17,70 45.55,80.03 13.38,10.04 37.83,14.93 73.34,14.41l0 145.39 -497.44 0 0 -145.39 30.12 -0.77c27.52,0 47.09,-3.86 58.15,-11.07 11.07,-7.21 16.46,-16.2 16.46,-26.76 0,-9.01 -4.63,-27.52 -14.4,-55.84l-30.88 -95.72 -320.37 0 -39.13 106.27c-7.97,22.64 -12.08,37.58 -12.08,44.53 0,7.97 2.82,15.44 8.75,21.87 5.65,6.69 15.18,11.32 28.3,14.4 8.49,2.06 32.17,3.09 70.76,3.09l0 145.39 -407.11 0 0 -145.39c26,0 45.29,-2.31 57.39,-6.95 11.83,-4.37 21.87,-11.32 29.58,-20.33 7.99,-9 16.48,-25.72 26,-50.43l325.03 -828.6zm-32.43 566.13l210.23 0 -102.41 -289.51 -107.82 289.51zm1466.03 -566.13l107.06 0 103.19 377.76 -140.27 40.66c-46.57,-90.07 -90.57,-153.88 -131.75,-191.45 -57.37,-51.72 -119.4,-77.72 -186.31,-77.72 -48.63,0 -94.42,13.64 -136.88,40.66 -42.46,27.28 -76.17,67.16 -100.88,119.92 -24.96,52.75 -37.32,114.5 -37.32,185.54 0,108.06 28.58,200.97 85.44,278.93 57.13,77.97 131.75,116.83 224.39,116.83 58.68,0 115.28,-16.73 169.58,-50.44 67.94,-41.68 126.37,-97.78 175.78,-168.28l116.81 86.72c-75.91,103.69 -145.39,175.74 -208.19,216.4 -97.01,62.79 -205.09,94.19 -324.23,94.19 -98.82,0 -188.62,-23.67 -268.67,-71.28 -80.29,-47.35 -144.1,-113.74 -191.97,-199.17 -47.61,-85.44 -71.53,-178.84 -71.53,-279.72 0,-100.61 23.16,-192.22 69.74,-274.82 46.57,-82.86 109.88,-147.21 189.9,-193.52 80.3,-46.06 169.59,-69.22 268.15,-69.22 99.85,0 187.59,21.11 263,63.31l24.96 -45.3zm741.4 276.62l-202.02 545.8c-7.97,21.62 -12.09,36.54 -12.09,44.53 0,14.66 6.94,24.7 21.1,30.62 14.15,5.65 42.45,8.74 85.17,8.74l0 145.39 -405.55 0 0 -145.39c34.75,0 58.93,-4.89 72.83,-14.41 13.64,-9.51 27.28,-30.62 40.14,-63.3l325.01 -828.6 234.44 0 317.54 811.87c14.41,37.32 28.05,62.27 40.92,75.15 12.88,12.86 38.87,19.29 77.99,19.29l0 145.39 -497.44 0 0 -145.39 30.12 -0.77c49.65,-1.02 74.61,-13.64 74.61,-37.83 0,-10.03 -4.63,-28.56 -14.4,-55.84l-188.37 -535.25zm1110.9 -294.63c166.77,0 301.86,50.69 405.31,152.34 103.19,101.39 154.91,231.85 154.91,391.13 0,107.05 -23.68,202.01 -71.03,284.87 -47.09,83.12 -112.44,146.93 -195.56,191.97 -83.12,45.03 -183.48,67.42 -301.1,67.42 -155.42,0 -282.54,-42.72 -381.61,-128.16 -119.67,-102.93 -179.36,-240.59 -179.36,-413 0,-160.33 52.5,-291.56 157.23,-393.71 104.73,-101.91 241.89,-152.86 411.21,-152.86zm3.09 167.26c-80.04,0 -143.59,29.85 -190.68,89.81 -59.46,75.39 -89.04,172.67 -89.04,291.81 0,118.89 27.53,213.32 82.86,282.54 47.86,59.45 110.91,89.05 189.13,89.05 79.02,0 142.07,-29.6 189.41,-89.05 55.85,-70.76 83.63,-165.46 83.63,-284.09 0,-83.62 -11.84,-153.62 -35.76,-210.48 -23.93,-56.62 -56.1,-99.08 -97.02,-127.39 -40.65,-28.04 -84.92,-42.2 -132.53,-42.2zm592.12 -3.6l0 -145.65 598.05 0c91.37,0 163.16,10.81 215.67,32.17 52.22,21.36 92.38,51.97 120.42,91.87 28.3,39.88 42.2,83.88 42.2,131.49 0,34.73 -7.21,67.68 -22.13,98.82 -14.92,31.13 -36.28,58.66 -64.06,82.6 -27.8,23.93 -64.85,43.48 -110.4,59.18 49.15,12.62 86.97,26.26 112.97,41.44 37.83,21.09 67.67,50.68 89.8,88.51 22.12,38.08 33.2,80.28 33.2,127.12 0,55.84 -16.99,107.06 -50.7,154.15 -33.45,47.08 -81.06,82.85 -142.82,107.31 -61.5,24.7 -151.56,37.04 -270.2,37.04l-552 0 0 -145.39 41.71 0c27.54,0 46.32,-2.57 56.1,-7.2 9.77,-4.9 16.72,-11.59 20.59,-20.33 4.12,-9.01 6.18,-28.56 6.18,-59.18l0 -586.71c0,-31.14 -2.06,-50.95 -6.18,-59.46 -3.87,-8.48 -10.82,-15.43 -20.59,-20.31 -9.78,-5.15 -28.56,-7.47 -56.1,-7.47l-41.71 0zm385.5 280.24l115.29 0c60.22,0 104.73,-4.9 133.82,-14.94 28.82,-10.03 50.69,-25.21 65.11,-45.54 14.66,-20.59 21.87,-44.01 21.87,-70.51 0,-27.79 -6.95,-51.47 -20.59,-71.02 -13.9,-19.55 -33.97,-33.45 -59.95,-41.68 -26.25,-8.51 -73.1,-12.62 -140.26,-12.62l-115.29 0 0 256.31zm0 154.65l0 227.73c0.26,32.16 1.54,50.95 3.61,56.36 2.56,7.2 6.69,12.09 12.61,14.92 5.65,2.58 21.35,4.12 47.09,4.12l76.69 0c44.77,0 81.82,-4.12 111.43,-12.61 29.34,-8.24 54.3,-25.48 74.88,-51.46 20.59,-26.26 30.89,-57.66 30.89,-94.44 0,-31.14 -7.21,-57.38 -21.89,-79.01 -14.4,-21.61 -36.27,-38.08 -65.61,-49.15 -29.07,-11.06 -73.61,-16.46 -133.32,-16.46l-136.38 0zm691.2 471.16l0 -145.39 50.7 0c31.66,0 51.99,-5.65 61.24,-16.97 9.26,-11.33 14.16,-36.55 14.16,-75.93l0 -578.21c0,-37.06 -5.41,-61.51 -15.7,-72.83 -10.29,-11.32 -35.25,-16.72 -74.88,-16.72l-35.52 0 0 -145.65 512.61 0 0 145.65 -42.2 0c-31.65,0 -53.52,3.1 -65.86,9.27 -12.36,6.43 -18.54,28.3 -18.54,65.86l0 196.1 179.62 0c123.51,0 219.52,30.62 287.45,92.13 68.2,61.23 102.17,136.62 102.17,226.17 0,83.9 -31.4,157.49 -94.7,221.06 -63.05,63.55 -164.72,95.46 -304.96,95.46l-555.59 0zm386.01 -171.13l116.84 0c53.78,0 97,-12.34 129.69,-37.05 32.67,-24.44 49.15,-60.99 49.15,-109.1 0,-36.8 -9.53,-67.16 -28.82,-91.35 -19.05,-24.2 -41.18,-40.4 -66.66,-48.9 -25.47,-8.75 -62.27,-12.87 -110.39,-12.87l-89.81 0 0 299.27zm600.11 -880.57l512.62 0 0 145.65 -46.59 0c-27.26,0 -45.28,2.32 -54.03,6.95 -8.74,4.89 -15.19,12.35 -19.56,22.65 -4.38,10.28 -6.44,30.1 -6.44,59.17l0 582.08c0,31.66 1.8,51.99 5.41,61 3.34,9 9.53,15.69 18.02,19.55 10.54,6.17 26.24,9.26 47.35,9.26l55.84 0 0 145.39 -512.62 0 0 -145.39 41.43 0c29.59,0 49.15,-2.31 58.15,-6.43 9.01,-4.37 15.7,-11.06 19.81,-20.33 4.38,-9.52 6.44,-27.8 6.44,-55.58l0 -584.13c0,-32.69 -2.06,-54.31 -6.44,-64.59 -4.11,-10.3 -11.32,-18.28 -21.35,-23.69 -6.95,-4.11 -24.18,-5.91 -51.2,-5.91l-46.84 0 0 -145.65zm637.68 0l566.38 0 0 145.65 -43.74 0c-23.16,0 -37.82,1.8 -44.26,5.4 -6.18,3.87 -9.26,10.04 -9.26,18.53 0,4.63 1.02,9.26 3.6,13.9 2.57,4.89 9.78,14.66 21.86,29.08l111.7 134.32 125.06 -138.7c16.2,-17.75 24.19,-30.36 24.19,-38.6 0,-7.97 -3.36,-13.9 -10.31,-18.02 -6.69,-4.11 -22.13,-5.91 -46.31,-5.91l-38.35 0 0 -145.65 471.96 0 0 145.65c-34.73,0.78 -59.18,3.34 -73.6,7.47 -14.4,3.85 -30.87,12.08 -49.4,24.19 -13.64,9 -28.3,21.86 -44.52,39.1l-279.73 276.64 307.79 328.09c33.71,36.02 61.49,59.19 83.62,69.74 22.13,10.28 52.24,15.43 90.59,15.43l0 145.39 -576.19 0 0 -145.39 52.77 0c24.7,0 40.14,-1.79 46.05,-5.41 5.93,-3.59 9.01,-8.74 9.01,-15.69 0,-9.77 -8.23,-24.19 -24.96,-43.74l-151.31 -172.67 -162.12 172.67c-14.14,15.44 -21.09,29.33 -21.09,41.42 0,6.95 3.59,12.62 11.32,16.99 7.45,4.12 22.9,6.43 45.8,6.43l40.92 0 0 145.39 -478.13 0 0 -145.39c33.19,0 56.6,-1.79 70.5,-5.41 13.9,-3.59 26.5,-9.25 38.08,-17.23 19.56,-14.16 43.5,-34.99 71.54,-62.53l301.6 -300.31 -287.18 -308.27c-27.02,-29.08 -49.41,-47.61 -66.65,-55.33 -17.51,-7.72 -46.33,-11.58 -87.23,-11.58l0 -145.65z"/>
    <path class="fil0" d="M3885.65 10250.94l0 -389.82 2515.92 0 0 389.82 -112.94 0c-98.5,0 -159.79,13.78 -185.96,42.02 -25.48,28.24 -37.89,98.48 -37.89,210.06l0 1525.54c0,116.39 13.78,188.71 41.33,216.95 27.54,27.55 99.17,41.33 214.89,41.33l80.57 0 298.91 829.22 -367.78 130.86c-62.68,-161.17 -153.59,-296.85 -272.05,-406.35 -118.46,-109.52 -307.86,-164.61 -568.89,-164.61l-1219.04 0c-259.66,0 -448.36,54.41 -566.83,163.24 -118.46,109.5 -210.06,245.18 -274.12,407.72l-365.72 -130.86 298.92 -829.22 102.62 0c133.6,0 221.77,-69.57 266.53,-208l496.58 -1557.92c13.09,-41.31 19.97,-75.07 19.97,-100.55 0,-112.95 -79.89,-169.43 -240.37,-169.43l-124.65 0zm1482.83 1984.92l0 -1932.57 -611.58 0 -514.49 1749.37c-8.95,31 -13.78,57.16 -13.78,78.51 0,70.26 64.74,104.69 195.61,104.69l944.24 0z"/>
    <path class="fil0" d="M9075.34 9867.52l1273.46 0 488.31 1712.88 506.21 -1712.88 1295.5 0 0 389.83 -139.11 0c-75.07,0 -127.42,15.14 -156.35,46.83 -28.93,31.68 -43.39,91.61 -43.39,179.07l0 1597.85c0,70.25 4.13,113.64 12.39,130.86 11.72,26.85 28.93,46.15 50.28,56.48 29.63,16.52 68.18,24.8 117.09,24.8l159.09 0 0 389.12 -1354.04 0 0 -389.12 105.37 0c76.46,0 128.11,-6.21 154.97,-18.61 26.86,-11.71 46.83,-30.3 59.92,-55.09 12.4,-24.8 19.29,-70.95 19.29,-138.44l0 -1731.46 -686.67 2332.72 -389.12 0 -663.94 -2257.65 0 1710.81c0,39.24 6.88,69.55 21.34,90.9 13.78,21.36 34.44,37.88 60.61,49.6 26.18,11.01 68.18,17.22 126.05,17.22l134.98 0 0 389.12 -1152.24 0 0 -389.12 112.94 0c71.63,0 120.54,-6.89 146.7,-19.3 26.19,-13.09 45.47,-33.05 58.56,-60.61 12.39,-27.54 19.28,-78.51 19.28,-152.2l0 -1577.88c0,-73 -4.82,-119.83 -14.47,-141.18 -11.7,-29.63 -30.3,-51.67 -54.4,-64.74 -24.11,-13.78 -62.69,-19.98 -115.02,-19.98l-153.59 0 0 -389.83z"/>
    <g>
     <path class="fil1" d="M8172.68 12603.63c-127.43,-106.69 -258.1,-210.45 -392.46,-310.78 -137.35,105.42 -270.82,214.33 -400.79,325.79 257.85,71.5 536.3,66.1 793.25,-15.01z"/>
     <path class="fil1" d="M7279.68 12586.58c137.8,-119.41 279.54,-236.22 425.6,-349.07 -61.01,-44.53 -122.84,-88.43 -185.51,-131.56 -66.73,-46 -134.42,-91.1 -203.06,-135.38 -145.5,126.28 -288.06,255.8 -430.18,387.87 117.82,100.58 251.35,176.54 393.15,228.14z"/>
     <path class="fil1" d="M6563.67 11576.84c-44.85,288.44 33.46,489.92 235.7,699.6 136.33,-126.79 272.86,-251.22 412.05,-372.67 -205.29,-127.93 -412.18,-266.3 -647.75,-326.93z"/>
     <path class="fil1" d="M7387.39 11909.69c61.83,40.2 122.97,81.05 183.28,122.59 70.61,48.67 140.15,98.22 208.79,148.61 62.73,-47.4 126.28,-94.03 190.66,-139.83 69.73,-49.56 140.47,-98.16 212.29,-145.69 -110.82,-90.4 -223.93,-178.57 -339.78,-264.58 -19.46,-14.51 -39.06,-28.88 -58.72,-43.26 -27.29,20.99 -54.39,42.05 -81.3,63.24 -107.39,84.48 -212.16,170.87 -315.22,258.92z"/>
     <path class="fil1" d="M7099.58 11134.19l-408.8 -232.52c-69.54,221.77 -68.39,420 16.03,590.43 127.04,-125.58 257.52,-244.67 392.77,-357.91z"/>
     <path class="fil1" d="M7682.63 11514.69c-136.26,-96.7 -276.6,-190.6 -421.91,-281.76 -138.49,113.81 -272.21,234.05 -402.5,361.41 145.43,79.14 286.66,161.9 423.94,248.1 113.24,-97.33 228.33,-192.69 346.53,-285.64 17.94,-14.12 35.88,-28.18 53.94,-42.11z"/>
     <path class="fil1" d="M7024.39 10305.96c-108.92,168.2 -164.77,355.56 -134.75,573.83l307.85 174.05c75.89,-60.94 153.32,-120.23 232.39,-177.87 60.63,-44.15 122.21,-87.35 184.75,-129.59 -261.15,-172.34 -392.39,-190.72 -590.24,-440.42z"/>
     <path class="fil1" d="M8258.88 10363.6c-274.89,-801.71 -694.19,-847.83 -983.78,-26.4 175.27,92.3 342.26,193.9 502.45,302.88 153.76,-97.08 313.83,-189.01 481.33,-276.48z"/>
     <path class="fil1" d="M7773.61 10855.36c-81.37,53.5 -160.83,108.47 -238.5,165.09 -59.61,43.45 -118.27,87.91 -176.1,133.4 145.62,92.31 286.28,187.29 422.99,285.07 125.46,-94.28 254.92,-185.95 389.53,-274.7 -60.05,-50.45 -121,-100.01 -182.96,-148.42 -70.3,-54.9 -141.87,-108.47 -214.96,-160.44z"/>
     <path class="fil1" d="M8500.56 10305.96c-198.23,286.28 -272.22,266.68 -564.28,446.08 54.9,40.08 109.04,81.05 162.41,122.79 78.51,61.32 155.29,124.24 230.55,188.43 98.42,-61.2 200.27,-118.39 304.98,-176.41 0.13,0.25 31.62,-387.11 -133.66,-580.89z"/>
     <path class="fil1" d="M8266.07 11245.08c-132.2,86.2 -259.37,175.45 -382.79,267.32l30.48 22.52c127.8,94.85 252.11,192.25 373.81,292.26 120.11,-76.47 243.15,-149.76 369.49,-219.36 -126.53,-124.24 -256.5,-245.75 -390.99,-362.74z"/>
     <path class="fil1" d="M8810.25 11507.44c92.12,-173.87 95.55,-377.32 23.92,-605.77l-410.46 243.53c133.09,117.37 261.6,238.63 386.54,362.24z"/>
     <path class="fil1" d="M8254.75 11954.92c-78.83,51.72 -156.38,104.84 -232.72,159.11 -56.55,40.2 -112.41,81.05 -167.63,122.52 142.69,107.2 281.13,218.08 415.87,332.21 144.92,-58.08 280.74,-141.55 399.58,-249.89 -135.7,-125.07 -273.62,-246.39 -415.1,-363.95z"/>
     <path class="fil1" d="M8961.28 11576.84c-222.34,69.79 -404.42,186.15 -601.31,310.39 134.29,112.48 265.35,228.13 394.3,347.1 190.02,-208.54 241.04,-379.54 207.01,-657.49z"/>
    </g>
    <g>
     <path class="fil0" d="M3391.42 8318.02l495.62 0 0 140.81 -32.84 0c-31.61,0 -51.01,1.5 -58.22,4.99 -11.71,5.47 -20.16,12.94 -25.13,22.63 -5.23,9.71 -7.71,27.87 -7.71,54.74l0 270.19 316.96 -293.58c14.17,-13.18 22.63,-22.15 25.62,-26.63 2.74,-4.72 4.23,-8.7 4.23,-11.93 0,-6.96 -2.74,-11.95 -8.21,-15.42 -5.73,-3.49 -19.9,-4.99 -42.79,-4.99l-40.8 0 0 -140.81 460.02 0 0 140.81 -15.42 0c-21.4,0 -36.08,1.01 -44.29,3.23 -8.46,2 -18.41,6.98 -30.34,14.19 -11.95,7.21 -27.37,19.16 -46.29,35.57l-245.56 212.98 292.84 395.82c25.37,33.83 43.78,53.99 55.47,60.46 15.68,8.71 37.83,13.18 67.18,13.18l19.66 0 0 140.57 -513.27 0 0 -140.57 20.39 0c37.57,0 60.21,-1.74 68.17,-5.21 7.97,-3.49 11.95,-7.71 11.95,-13.2 0,-5.72 -7.47,-19.65 -22.39,-41.55l-178.65 -254.26 -154.48 131.86 0 102.76c0,25.37 2.48,42.78 7.2,52.49 4.99,9.7 11.69,16.67 20.9,20.89 8.96,3.99 26.88,6.22 54.24,6.22l41.56 0 0 140.57 -495.62 0 0 -140.57 37.07 0c28.61,0 47.77,-2.49 57.72,-6.97 9.71,-4.72 16.67,-12.19 20.89,-22.38 4,-8.22 5.98,-28.12 5.98,-59.71l0 -555.31c0,-30.1 -2.24,-50.24 -6.46,-60.45 -4.49,-10.2 -11.45,-17.91 -21.16,-23.14 -9.69,-4.97 -27.37,-7.47 -52.48,-7.47l-41.56 0 0 -140.81z"/>
     <path class="fil0" d="M4631.67 8318.02l848.4 0 115.93 321.44 -132.1 47.27c-22.39,-52.24 -48.51,-94.55 -78.37,-126.64 -29.85,-32.08 -62.95,-53.48 -99.03,-63.93 -36.31,-10.46 -78.36,-15.67 -126.38,-15.67l-155.25 0 0 253.76 51.01 0c38.31,0 64.19,-2.74 77.63,-8.46 13.18,-5.47 22.87,-14.18 28.6,-26.12 5.98,-11.95 8.71,-35.58 8.71,-71.15l0 -38.58 129.87 0 0 429.93 -129.87 0 0 -43.54c0,-29.86 -3.48,-51.26 -10.44,-64.94 -6.97,-13.69 -16.68,-22.89 -28.87,-27.62 -12.19,-4.97 -39.06,-7.46 -80.88,-7.46l-45.76 0 0 233.37c0,24.62 0.99,39.8 3.47,45.03 2.49,5.47 7.23,9.45 14.19,12.44 7.21,2.98 22.39,4.48 45.54,4.48l85.34 0c63.69,0 117.43,-9.21 161.21,-27.37 43.54,-18.17 82.6,-47.77 116.94,-88.32 34.33,-40.55 60.7,-88.82 79.11,-144.55l133.35 45.78 -133.35 377.66 -879 0 0 -140.57 25.39 0c34.07,0 56.97,-2.49 68.41,-7.45 11.69,-4.73 20.15,-13.19 24.87,-25.38 2.5,-7.47 3.74,-28.12 3.74,-61.95l0 -554.07c0,-30.1 -2.24,-49.76 -6.22,-58.96 -4.22,-9.21 -10.7,-16.17 -19.4,-20.9 -8.72,-4.48 -25.88,-6.72 -51.76,-6.72l-45.03 0 0 -140.81z"/>
     <path class="fil0" d="M5842.39 8458.83l0 -140.81 908.85 0 0 140.81 -40.8 0c-35.58,0 -57.72,4.99 -67.17,15.18 -9.21,10.2 -13.69,35.59 -13.69,75.88l0 551.08c0,42.05 4.98,68.17 14.94,78.37 9.95,9.95 35.81,14.92 77.61,14.92l29.11 0 107.99 299.56 -132.86 47.26c-22.65,-58.22 -55.49,-107.23 -98.28,-146.78 -42.8,-39.56 -111.21,-59.47 -205.5,-59.47l-440.38 0c-93.8,0 -161.97,19.66 -204.75,58.97 -42.79,39.56 -75.88,88.57 -99.03,147.28l-132.1 -47.26 107.98 -299.56 37.06 0c48.27,0 80.12,-25.12 96.29,-75.13l179.37 -562.76c4.73,-14.93 7.23,-27.13 7.23,-36.33 0,-40.8 -28.87,-61.21 -86.84,-61.21l-45.03 0zm535.67 717.02l0 -698.1 -220.94 0 -185.85 631.93c-3.25,11.2 -4.98,20.65 -4.98,28.36 0,25.37 23.39,37.81 70.65,37.81l341.12 0z"/>
     <path class="fil0" d="M6878.16 8318.02l537.15 0c68.17,0 124.65,6.98 169.69,20.9 44.79,13.69 83.6,34.83 115.7,62.95 32.34,28.11 57.23,61.69 74.89,100.26 17.4,38.56 26.12,79.62 26.12,122.65 0,87.08 -33.34,159.98 -100.26,218.68 -66.68,58.97 -159,88.33 -276.43,88.33l-173.66 0 0 190.32c0,23.64 1.74,38.82 5.23,45.04 4.23,9.2 10.94,16.17 19.9,20.4 8.96,4.48 24.14,6.71 45.52,6.71l51.76 0 0 140.57 -495.61 0 0 -140.57 34.35 0c30.1,0 50.01,-2.23 59.71,-6.71 9.7,-4.23 16.92,-11.2 21.14,-20.65 4.48,-9.46 6.72,-29.11 6.72,-58.72l0 -559.03c0,-31.09 -1.98,-51.74 -5.97,-61.7 -3.98,-9.95 -9.95,-17.17 -18.66,-21.9 -8.45,-4.48 -24.62,-6.72 -48.26,-6.72l-49.03 0 0 -140.81zm373.2 166.19l0 288.6 86.84 0c52.99,0 91.79,-5.47 116.68,-16.41 24.62,-10.96 44.53,-27.62 59.71,-50.27 14.92,-22.63 22.63,-49.5 22.63,-80.6 0,-46.53 -18.15,-83.59 -53.98,-110.72 -26.87,-20.39 -66.43,-30.6 -118.92,-30.6l-112.96 0z"/>
     <path class="fil0" d="M8405.35 8300.61c161.23,0 291.84,49.01 391.87,147.28 99.76,98.03 149.77,224.17 149.77,378.17 0,103.49 -22.89,195.3 -68.66,275.4 -45.54,80.36 -108.72,142.07 -189.1,185.61 -80.36,43.53 -177.39,65.18 -291.08,65.18 -150.27,0 -273.18,-41.3 -368.98,-123.9 -115.69,-99.52 -173.4,-232.62 -173.4,-399.3 0,-155.01 50.75,-281.88 152,-380.66 101.27,-98.52 233.88,-147.78 397.58,-147.78zm2.99 161.71c-77.37,0 -138.82,28.85 -184.36,86.83 -57.47,72.89 -86.07,166.94 -86.07,282.14 0,114.94 26.62,206.24 80.11,273.16 46.27,57.47 107.23,86.09 182.85,86.09 76.39,0 137.35,-28.62 183.11,-86.09 54,-68.41 80.87,-159.98 80.87,-274.66 0,-80.86 -11.45,-148.53 -34.58,-203.51 -23.14,-54.75 -54.24,-95.79 -93.8,-123.16 -39.31,-27.11 -82.1,-40.8 -128.13,-40.8z"/>
     <path class="fil0" d="M8965.9 8458.83l0 -140.81 578.21 0c88.31,0 157.73,10.45 208.48,31.1 50.51,20.65 89.32,50.26 116.44,88.82 27.37,38.56 40.79,81.11 40.79,127.13 0,33.59 -6.96,65.43 -21.38,95.54 -14.43,30.1 -35.08,56.73 -61.95,79.86 -26.87,23.13 -62.7,42.05 -106.74,57.23 47.52,12.19 84.09,25.37 109.23,40.05 36.57,20.4 65.42,49.01 86.82,85.59 21.4,36.82 32.09,77.61 32.09,122.89 0,54 -16.41,103.5 -49.01,149.03 -32.34,45.53 -78.36,80.11 -138.07,103.74 -59.47,23.89 -146.54,35.83 -261.25,35.83l-533.66 0 0 -140.57 40.31 0c26.61,0 44.78,-2.49 54.22,-6.97 9.47,-4.72 16.19,-11.18 19.91,-19.64 3.99,-8.72 5.97,-27.62 5.97,-57.23l0 -567.25c0,-30.1 -1.98,-49.25 -5.97,-57.47 -3.72,-8.2 -10.44,-14.92 -19.91,-19.64 -9.44,-4.99 -27.61,-7.23 -54.22,-7.23l-40.31 0zm372.7 270.94l111.45 0c58.23,0 101.27,-4.72 129.38,-14.43 27.86,-9.71 49.02,-24.38 62.95,-44.03 14.18,-19.9 21.15,-42.55 21.15,-68.17 0,-26.87 -6.72,-49.76 -19.9,-68.67 -13.45,-18.91 -32.85,-32.34 -57.98,-40.31 -25.37,-8.2 -70.65,-12.19 -135.6,-12.19l-111.45 0 0 247.8zm0 149.52l0 220.19c0.24,31.09 1.49,49.26 3.47,54.48 2.48,6.97 6.48,11.69 12.19,14.44 5.47,2.48 20.65,3.97 45.54,3.97l74.13 0c43.31,0 79.14,-3.97 107.75,-12.19 28.36,-7.95 52.5,-24.63 72.4,-49.76 19.9,-25.37 29.86,-55.73 29.86,-91.3 0,-30.11 -6.98,-55.49 -21.16,-76.38 -13.93,-20.9 -35.08,-36.82 -63.44,-47.52 -28.12,-10.7 -71.16,-15.93 -128.89,-15.93l-131.85 0z"/>
     <path class="fil0" d="M9991.94 9334.83l0 -140.57 49.01 0c30.59,0 50.25,-5.47 59.21,-16.41 8.96,-10.95 13.68,-35.33 13.68,-73.4l0 -559.04c0,-35.81 -5.22,-59.45 -15.18,-70.41 -9.95,-10.94 -34.09,-16.17 -72.4,-16.17l-34.32 0 0 -140.81 495.61 0 0 140.81 -40.82 0c-30.61,0 -51.75,2.99 -63.7,8.97 -11.93,6.21 -17.91,27.37 -17.91,63.68l0 189.59 173.66 0c119.42,0 212.24,29.6 277.91,89.06 65.92,59.21 98.77,132.1 98.77,218.68 0,81.11 -30.35,152.27 -91.55,213.71 -60.96,61.47 -159.23,92.31 -294.82,92.31l-537.15 0zm373.18 -165.44l112.96 0c52,0 93.8,-11.95 125.4,-35.83 31.59,-23.64 47.52,-58.97 47.52,-105.49 0,-35.57 -9.21,-64.93 -27.86,-88.32 -18.41,-23.38 -39.81,-39.06 -64.45,-47.27 -24.63,-8.46 -60.2,-12.44 -106.73,-12.44l-86.84 0 0 289.35zm580.19 -851.37l495.61 0 0 140.81 -45.02 0c-26.38,0 -43.8,2.24 -52.26,6.72 -8.46,4.73 -14.67,11.95 -18.9,21.9 -4.23,9.96 -6.21,29.11 -6.21,57.22l0 562.77c0,30.6 1.73,50.26 5.21,58.96 3.24,8.7 9.2,15.18 17.42,18.91 10.19,5.98 25.37,8.95 45.78,8.95l53.98 0 0 140.57 -495.61 0 0 -140.57 40.07 0c28.6,0 47.52,-2.23 56.22,-6.22 8.7,-4.22 15.18,-10.7 19.16,-19.64 4.23,-9.21 6.21,-26.87 6.21,-53.74l0 -564.77c0,-31.59 -1.98,-52.48 -6.21,-62.44 -3.98,-9.95 -10.95,-17.66 -20.66,-22.89 -6.72,-3.97 -23.37,-5.73 -49.51,-5.73l-45.28 0 0 -140.81z"/>
     <path class="fil0" d="M11527.45 8318.02l496.36 0 0 140.81 -46.04 0c-31.84,0 -52.74,4.73 -62.69,14.44 -9.7,9.7 -14.43,35.32 -14.43,76.62l0 337.37 370.2 -346.82c0,-40.79 -5.47,-64.69 -16.42,-71.4 -10.95,-6.98 -33.83,-10.21 -68.91,-10.21l-38.57 0 0 -140.81 497.84 0 0 140.81 -41.54 0c-35.33,0 -57.72,4.99 -66.92,15.18 -9.46,10.2 -13.93,35.59 -13.93,75.88l0 551.08c0,42.05 4.97,68.17 14.92,78.37 9.95,9.95 36.07,14.92 78.36,14.92l29.11 0 0 140.57 -497.84 0 0 -140.57 32.84 0c40.81,0 66.19,-5.47 76.14,-16.41 9.95,-10.95 14.92,-36.58 14.92,-76.88l0 -341.85 -370.2 341.85c0.49,34.33 2.24,56.23 4.97,65.43 2.99,9.21 9.46,16.17 19.66,20.89 10.19,4.48 31.59,6.97 64.19,6.97l34.34 0 0 140.57 -496.36 0 0 -140.57 33.58 0c39.8,0 64.43,-5.47 73.89,-16.41 9.45,-10.95 14.18,-34.08 14.18,-68.92l0 -552.56c0,-43.3 -4.73,-70.41 -14.18,-81.37 -9.46,-10.94 -30.35,-16.17 -62.19,-16.17l-45.28 0 0 -140.81zm558.29 -83.84c-121.9,0 -213.95,-20.89 -275.9,-62.7 -61.97,-41.79 -92.82,-87.57 -92.82,-137.83 0,-31.35 11.2,-56.72 33.35,-76.12 22.4,-19.16 47.53,-28.62 75.15,-28.62 16.65,0 32.58,4.23 48.51,12.69 15.66,8.46 27.11,16.92 34.33,25.38 6.97,8.7 15.93,24.62 26.63,47.76 16.41,36.09 33.33,60.46 50.99,73.39 17.42,12.94 50.75,19.16 99.76,19.16 48.53,0 81.86,-6.22 99.52,-19.16 17.66,-12.93 35.08,-37.06 52,-72.65 10.7,-23.13 19.66,-39.3 26.62,-48.5 7.21,-8.97 18.41,-17.42 34.09,-25.88 15.43,-8.2 31.6,-12.19 48.76,-12.19 27.61,0 52.74,9.46 75.13,28.62 22.15,19.4 33.35,45.03 33.35,76.87 0,50.26 -31.11,96.03 -93.3,137.59 -62.2,41.54 -154.25,62.19 -276.17,62.19z"/>
    </g>
   </g>
   <path class="fil1" d="M7975.55 1386.39c-29.64,137.52 -10.79,253.45 110.56,331.67 13.5,35.05 -18.87,53.9 -35.04,75.5 8.08,48.52 91.67,45.84 72.8,110.53 -35.04,40.45 -105.17,80.91 -62.03,134.83 37.77,53.94 132.12,40.46 124.06,124.06 -48.54,91.65 -148.33,-32.37 -196.86,62.01 75.52,175.24 291.24,175.24 431.43,283.1 21.58,0 32.37,24.27 48.54,37.76 13.47,29.67 -24.28,37.74 -37.75,59.32 -142.9,21.58 -256.15,-142.93 -380.19,-48.54 59.33,113.25 194.14,156.41 293.92,223.78 140.19,-32.34 212.99,94.38 345.11,86.32 32.37,43.13 107.87,56.6 99.79,121.33 -51.25,59.33 -121.34,45.82 -186.06,24.28 -121.35,-26.98 -234.58,-194.13 -369.41,-86.29 -62.01,5.38 -97.06,-51.26 -159.07,-48.53 -35.09,26.96 -67.43,70.08 -37.78,110.54 142.92,86.3 288.52,161.79 444.91,223.8 43.16,43.16 97.07,53.95 159.08,48.52 64.76,80.91 239.99,45.86 210.34,196.84 -110.55,102.48 -207.61,-88.97 -334.36,-24.26 -78.18,5.4 -150.99,110.57 -234.58,37.75 5.4,-48.54 5.4,-99.78 -48.54,-113.25 -86.3,-2.68 -180.65,-8.09 -221.12,75.5 -16.17,18.88 -16.17,53.94 0,72.8 110.57,97.07 285.83,-10.79 382.9,137.55 0,48.52 29.68,91.65 72.81,110.53 186.04,40.45 369.42,97.08 493.45,258.85 78.19,-80.86 8.1,-188.73 13.48,-283.11 -43.16,-121.34 -167.18,32.37 -199.55,-86.27 35.05,-35.07 83.59,-35.07 124.05,-51.24 48.54,-64.73 107.87,-156.4 13.49,-207.65 24.25,-62.01 86.28,-113.23 110.55,-172.56l0 -482.65c21.57,-18.87 40.43,-48.54 72.8,-37.77 43.15,21.6 35.06,67.44 51.23,99.78l-26.96 62.02c64.69,167.16 -94.39,444.91 137.49,517.69 0,78.23 -169.86,43.16 -99.74,148.34 5.39,105.14 229.19,72.8 110.53,183.35 -29.64,8.08 -70.1,-13.47 -86.27,26.96 56.63,53.92 124.02,78.18 196.82,86.27 70.12,67.44 148.34,107.86 223.82,159.09 5.38,37.75 -10.77,64.71 -37.73,86.28 -132.15,2.7 -210.35,-124.03 -331.69,-148.29 -37.75,-24.26 -102.44,-10.79 -113.23,37.75l26.96 97.07c237.3,102.47 431.43,307.4 663.31,420.64 -8.1,40.44 21.59,97.08 -24.27,124.04 -129.43,-26.96 -207.61,-161.78 -331.64,-199.53 -83.59,-16.2 -213.04,51.23 -248.09,-59.33 -80.89,29.65 -51.22,107.87 -10.79,159.1 134.81,237.27 420.66,164.47 614.79,283.11 80.91,-8.08 142.92,59.31 199.52,86.27 7.45,28.52 -12.48,49.05 -30.41,68.95 8.04,3.93 15.93,8.85 23.49,14.94 397.89,295.33 -99,-190 258.08,-78.52 16.79,-56.08 -33.7,-84.13 -56.15,-129.02 -216.5,-16.33 -154.24,-27.68 -154.24,-272.94 37.71,-36.03 53.28,-80.45 53.28,-136.52 100.96,-101.03 179.55,-258.07 157.11,-381.49 16.79,-100.92 -44.89,-246.77 50.49,-286.05 67.27,-22.45 106.55,39.28 151.44,78.51 -5.66,72.93 22.44,151.46 -22.44,207.54 28.04,78.52 117.76,145.85 201.93,151.5 -5.59,72.88 22.45,151.46 -22.44,207.54 -11.25,134.6 140.2,100.97 201.94,179.5 190.75,1.45 136.23,18.94 136.23,230.55l-7.22 -0.58c-117.82,50.48 -72.93,173.89 -100.97,252.42 -269.27,201.94 173.89,106.56 100.97,308.49 -7.96,74.13 17.84,128.26 59.07,171.24 118.38,22.92 244.72,3.49 325.91,-93.18 79.35,-35.7 142.84,23.82 208.33,45.65 81.35,69.45 121.04,-79.36 208.33,-45.65 39.69,-23.79 39.69,-67.43 37.69,-107.13 -11.9,-39.67 -53.57,-79.34 -91.27,-91.25 -97.22,83.32 -259.91,19.83 -363.08,91.25 -61.5,5.95 -150.77,27.78 -200.39,-19.82 -3.97,-35.72 5.96,-67.46 37.7,-89.29 75.39,15.87 115.09,-65.48 198.41,-37.7 105.16,59.53 184.51,-47.63 263.88,-99.2 71.43,-11.92 160.71,-5.96 198.41,-81.35l-25.8 -27.78c-87.29,23.82 -178.57,31.74 -273.8,27.78 -43.63,-49.59 -87.31,13.9 -126.98,35.71 -81.35,-23.81 -128.96,41.68 -198.41,45.64 -47.6,-17.86 -19.83,-65.49 -27.78,-99.2 99.21,-107.14 250.01,-93.27 380.95,-119.05 33.71,-99.22 124.99,-21.83 200.38,-43.65 7.95,-15.88 35.74,-23.82 27.78,-45.63 -55.53,-63.49 -140.85,-31.74 -218.24,-27.78 -93.27,85.31 -244.04,63.49 -363.09,53.57 -13.89,-15.87 -35.71,-27.77 -27.78,-53.57 25.81,-17.86 41.68,-53.57 73.42,-53.57 121.02,73.41 200.39,-67.45 335.31,-19.83 53.57,-31.77 99.2,-81.35 172.6,-63.49 29.78,-9.92 49.6,-39.7 45.64,-71.44 -77.39,-101.18 -242.06,3.96 -355.15,-55.54 -17.85,-33.74 -83.32,-35.72 -63.49,-89.31 75.39,-67.43 164.7,4 236.11,25.82 15.87,-3.98 43.65,-21.82 35.71,-45.64 -148.81,-180.55 148.8,-31.75 192.45,-152.77 -29.75,-49.61 -91.27,-17.86 -136.89,-27.78 -45.62,-27.78 -136.9,-11.9 -136.9,-91.27 27.79,-47.61 89.28,-21.83 126.98,-17.87 41.65,-37.67 115.07,2 154.74,-35.7 79.38,-59.53 -33.72,-105.16 -35.71,-162.69 -29.75,-47.61 -57.53,-73.4 -45.63,-136.89 154.76,-91.27 81.34,-244.04 99.23,-390.88 33.71,-65.45 89.27,5.96 109.1,37.71 35.71,128.96 -29.76,240.08 -17.86,371.02 57.53,41.68 43.66,109.13 45.63,172.61 45.64,53.58 130.96,49.59 190.48,91.27 5.93,9.92 27.79,25.8 7.93,35.71l9.92 9.92c-33.74,101.18 -156.73,23.82 -208.33,99.2 3.98,17.86 27.78,39.68 45.64,45.64 124.99,-25.82 194.45,83.32 325.39,45.63 41.67,17.86 23.82,57.53 27.79,89.28 -132.96,71.43 -349.22,-33.75 -454.36,91.27 19.83,43.65 75.4,35.72 119.04,35.72 81.34,126.98 230.14,132.91 371.02,136.89 33.71,17.84 69.44,51.59 55.57,99.2 -101.2,53.58 -196.45,-15.87 -291.68,-25.79 -55.57,-3.96 -132.91,-117.06 -170.63,-9.92 81.35,140.86 261.9,148.8 416.66,126.98 111.1,31.74 283.73,17.84 307.52,162.69 -89.28,77.39 -246.02,45.64 -353.14,27.78 -65.49,-15.88 -138.92,-43.63 -200.41,-45.63 0,91.27 -101.16,51.57 -144.84,99.2 9.93,19.86 17.86,37.7 27.78,55.56 63.49,37.68 144.84,5.93 208.33,-9.92 176.59,-45.64 249.98,172.61 426.57,126.98 31.75,23.79 41.67,55.54 35.71,91.24 -57.53,29.78 -144.84,19.86 -208.3,9.93 -113.1,-9.93 -210.33,21.82 -307.55,-27.77 -63.49,-7.94 -121.02,-29.77 -172.61,17.84 -17.86,29.78 -17.86,61.53 0,91.28 71.42,77.39 210.3,45.64 299.61,25.78 166.65,-31.71 404.73,-75.39 515.83,109.14 21.85,33.74 2,73.41 -17.85,101.19 -81.35,35.71 -109.13,-59.53 -172.62,-91.27 -29.75,-23.79 -67.45,-19.83 -89.28,17.86 2,11.92 -7.94,29.76 7.93,35.71 13.9,33.74 17.86,89.27 -27.75,109.12 -81.36,-3.97 -160.73,-11.89 -216.26,-71.42 -95.25,11.89 -190.49,-107.14 -263.9,-9.92 13.89,63.49 93.24,43.63 136.9,73.41 111.1,-29.78 166.67,73.4 216.27,144.84 75.38,21.83 140.87,67.46 228.15,63.49 51.6,41.65 130.96,23.79 180.56,71.43 17.85,41.67 -27.78,57.54 -45.64,81.34 -73.4,-19.84 -146.81,-47.63 -236.08,-35.71 -71.44,-39.67 -160.73,-47.62 -234.12,-81.35 -59.53,-21.81 -132.94,-65.49 -190.47,-35.71 0,17.86 3.96,41.65 25.78,45.62 105.16,-7.93 170.62,83.35 281.75,63.49 35.7,49.62 -79.39,89.3 0,134.93 121.02,-11.91 206.33,57.53 327.35,45.62 113.1,-31.75 162.71,89.3 253.98,109.13 83.32,-89.28 232.12,-11.9 317.42,-99.21 55.56,-5.96 119.05,-31.75 144.84,-73.38 -11.89,-9.94 -21.81,-25.82 -37.67,-17.9 -103.18,31.75 -214.29,-31.71 -297.61,53.6 -53.6,7.93 -132.96,29.75 -172.63,-17.86 31.75,-202.39 279.75,-7.95 343.26,-172.61 47.59,-15.89 79.34,61.5 119.02,9.93 19.84,-19.86 0,-45.65 -9.9,-63.5 -41.67,-11.93 -109.12,-19.85 -144.85,7.93 -65.48,57.53 -176.58,43.65 -271.82,45.64l-27.78 -25.81c-15.85,-41.65 25.79,-43.65 37.72,-63.48 119.02,71.43 168.62,-101.19 289.67,-27.77 39.68,-59.52 125,-17.86 162.67,-81.35 -49.61,-111.13 -180.55,-15.89 -281.73,-45.64l-35.71 -35.71c-7.92,-140.88 124.99,5.96 182.52,-63.49 -41.64,-115.06 111.13,-55.56 152.8,-109.13 -13.92,-85.32 -115.08,-29.75 -172.61,-45.63 -21.83,-11.9 -17.86,-33.71 -17.86,-55.57 9.92,-21.82 33.71,-9.89 45.64,-25.78 63.49,23.82 134.9,-1.97 172.59,-45.63l-99.21 -109.11c-9.89,-57.56 -29.75,-138.91 45.64,-172.62 91.28,7.93 103.16,113.1 170.63,162.69 -15.86,107.14 105.16,73.39 154.77,119.04 97.2,130.94 -119.04,33.74 -134.92,126.98 35.7,45.63 101.19,21.82 144.84,53.57 49.6,25.8 124.98,-15.87 162.68,37.7 1.99,27.78 0,55.57 -27.78,71.42 -89.27,-19.83 -198.39,1.99 -289.67,-17.85 -25.78,5.96 -43.64,33.74 -35.7,63.49 15.88,19.84 35.7,31.75 63.49,27.78 73.41,150.77 267.86,23.81 353.15,152.77 9.94,25.79 -13.88,39.67 -27.76,55.56 -65.49,1.97 -130.96,1.97 -180.55,-35.72 -43.65,-13.88 -109.14,-55.55 -144.84,0 7.92,17.86 15.88,39.69 35.7,53.57 123.02,101.18 285.71,29.75 436.5,63.49 27.78,43.65 103.16,35.72 99.19,99.21 -95.23,122.99 -224.19,-1.99 -345.22,17.85 -33.74,-2 -65.48,-33.74 -99.19,-7.96 -37.71,27.79 -73.41,53.6 -109.14,81.36 19.86,31.74 51.61,35.73 81.35,45.64 154.77,-107.14 275.79,79.37 436.5,71.45 27.78,11.88 11.91,41.63 17.84,63.46 -13.88,27.78 -43.63,43.66 -81.33,37.7 -125,-29.75 -265.87,-15.85 -390.87,-45.63 -31.74,3.96 -73.41,7.93 -81.33,45.63 7.92,25.79 21.81,61.52 53.57,71.43 77.37,7.96 178.55,29.78 246.03,-17.86 134.91,-19.83 279.75,-15.87 370.99,99.21 -3.96,31.75 13.9,73.41 -27.77,91.27 -47.61,7.93 -75.39,-31.76 -107.13,-63.5 -105.15,-75.38 -59.53,93.25 -109.11,119.05 -126.98,-5.95 -218.25,-95.23 -345.25,-101.19 -31.74,7.93 -35.7,43.65 -55.55,63.49 35.71,81.35 123.02,69.45 190.47,81.35 51.61,47.61 132.94,15.87 182.55,63.49 5.93,25.79 -11.92,41.67 -9.92,65.46 73.41,128.99 248,9.93 337.28,99.21 -7.93,23.81 15.86,59.53 -19.85,71.42 -47.61,23.82 -97.21,-1.97 -134.92,-25.79 -77.39,25.79 -132.92,-89.28 -190.45,-27.78 49.6,164.7 259.9,97.23 398.78,126.99 59.53,11.92 124.99,5.96 162.69,73.41 2,27.79 0,55.57 -25.77,71.42 -138.88,3.98 -275.8,0 -390.86,-53.55 -37.7,7.92 -41.67,55.55 -63.49,71.41 -29.78,-5.93 -57.56,11.92 -63.49,37.7 89.28,73.43 180.55,-29.77 281.73,17.87 73.41,39.67 136.9,109.11 236.11,89.27 19.84,15.88 31.75,37.71 25.77,63.49 -113.08,89.28 -236.1,-15.88 -371.02,19.83 -57.53,5.96 -97.2,-53.57 -154.73,-19.83 -25.82,5.96 -33.74,31.75 -35.72,55.57 83.32,142.84 259.9,23.79 380.92,99.2 21.83,31.74 87.31,43.64 63.51,99.19 -27.78,25.79 -47.61,59.53 -91.27,45.65 -49.61,-31.75 -109.14,-39.7 -172.61,-35.74 -53.56,-69.42 -158.73,-27.75 -218.26,-91.24 -53.57,7.92 -123.01,-55.57 -162.68,17.84 41.66,109.14 158.72,148.81 271.82,154.75 67.45,0 21.82,77.37 73.41,99.2 15.86,13.9 47.61,13.9 63.47,0 67.46,-1.97 172.61,-41.65 218.26,37.7 1.99,29.75 0,55.57 -27.79,71.43l-263.86 0c-67.45,-53.57 -172.63,-25.78 -244.04,-71.43 -17.86,5.96 -47.64,25.79 -35.71,53.57 79.34,31.75 132.91,125.02 236.09,99.2 117.05,73.43 297.6,-3.96 388.88,136.92l-7.94 9.92c3.97,15.86 -5.96,35.72 -19.85,53.57 -97.21,-3.97 -182.51,-35.71 -271.8,-63.49 -55.55,-5.96 -144.83,-67.46 -180.55,0 25.78,43.64 69.43,85.31 126.99,81.35 93.24,57.53 212.27,43.63 325.36,45.63 77.38,41.65 204.37,17.86 228.18,136.88 -13.89,11.92 -27.78,27.78 -45.63,35.74 -111.13,-3.99 -234.12,17.86 -317.47,-55.57 -83.31,-47.62 -115.06,45.65 -182.51,45.65 -148.81,41.63 -220.25,-111.13 -353.18,-109.14 -18.56,4.27 -27.87,18.84 -32.38,35.54l-775.43 -411.61c108.49,8.7 209.17,5.27 264.17,-121.94 3.99,-91.27 242.07,-61.49 89.31,-144.83 -99.22,-7.94 -214.29,55.55 -297.61,-17.86 -7.96,-39.67 25.79,-55.53 43.63,-73.39 87.31,-35.74 190.49,-35.74 273.8,-81.34 35.71,-31.76 37.71,-73.43 7.96,-109.13 -17.89,-17.87 -29.78,1.96 -45.64,9.92 -15.88,25.78 -41.67,21.82 -63.49,35.7l-7.96 -9.92 -9.91 9.92c-7.95,-15.88 -29.76,-5.96 -45.62,-9.92 -45.65,23.82 -2,79.36 -53.57,101.18 -105.16,2 -246.04,41.67 -327.39,-37.69 -45.63,7.94 -71.42,-51.58 -117.06,-17.84 -79.35,166.65 -253.95,29.75 -380.93,45.63 -27.78,-23.82 -65.48,-23.82 -99.19,-35.71 -15.5,8.61 -32.51,15.34 -48.56,22.96l-535.05 -284.02c42.2,-26.86 80.53,-60.29 111.38,-102.04 3.96,-37.7 23.82,-95.23 -9.89,-126.98 -20.32,22.24 -41.58,61.92 -67.91,94.46 6.35,53.6 -8.49,96.58 -37.11,132.68l-511.12 -271.32 -338.62 -179.74 -883.71 -469.1 0.01 -0.14 -36.04 -19.13 -0.09 0.09 -116.94 -62.07 -0.12 -0.21 -44.26 -23.49 -0.23 0.02 -33.94 -18.02 -487.59 -258.83 -21.78 -11.56 -0.07 -0.18 -69.38 -36.82 -0.1 0.08 -595.25 -315.97 0.02 -0.05 -419.21 -222.32 0.12 -0.09 -0.17 -0.1 -3000.78 1602.51 0 0.02 -252.4 134.78 -0.06 0.03 -71.81 38.35c-33.65,0.35 -67.48,0.33 -101.45,0.12l-3.54 8.64c-52.12,16.32 -102.96,28.32 -155.46,4.16 -83.32,-33.73 -156.73,13.88 -208.33,81.34 -85.32,19.85 -130.95,-99.2 -172.63,-144.83 -33.71,31.75 -13.85,89.28 -9.89,126.98 55.58,75.21 135.41,123.46 218.39,154.78l-966.26 516.01c-35.01,-6.67 -72.03,-8.55 -113.21,-0.18 -99.21,57.55 -218.25,75.41 -335.31,91.27 -93.25,-27.78 -204.37,-13.9 -281.76,-81.35 -5.93,-27.78 25.82,-35.71 35.71,-55.53 123.03,3.96 208.33,-81.36 309.54,-134.96 95.24,-3.96 222.22,-35.7 299.57,27.79 152.77,0 371.02,55.56 462.3,-91.28 -21.81,-33.71 -65.49,-43.63 -101.2,-63.45 -33.71,11.88 -71.41,11.88 -99.19,35.7 -126.98,-15.88 -301.57,121.02 -380.93,-45.63 -45.64,-33.74 -71.43,25.79 -117.06,17.85 -81.35,79.36 -222.23,39.69 -327.39,37.69 -51.57,-21.83 -7.92,-77.36 -53.57,-101.18 -15.86,3.96 -37.67,-5.96 -45.62,9.92l-9.91 -9.92 -7.96 9.92c-21.82,-13.88 -47.61,-9.92 -63.49,-35.71 -15.86,-7.95 -27.75,-27.78 -45.64,-9.92 -29.75,35.71 -27.75,77.38 7.96,109.14 83.31,45.59 186.49,45.59 273.8,81.33 17.85,17.86 51.59,33.73 43.63,73.4 -83.32,73.41 -198.39,9.92 -297.61,17.86 -152.76,83.33 85.32,53.55 89.31,144.83 91.49,211.61 309.39,80.72 479.44,121.19l-1334.7 712.77c-115.37,45.1 -230.7,91 -378.84,54.9 -33.72,-15.85 -25.78,-51.57 -25.78,-81.34 61.49,-47.61 156.73,-15.86 216.25,-63.49 93.24,-214.27 422.6,7.96 535.69,-190.45 -1.96,-23.82 -9.92,-49.64 -35.7,-55.57 -132.93,-1.99 -204.37,150.77 -353.18,109.14 -67.45,0 -99.2,-93.27 -182.51,-45.65 -83.35,73.43 -206.34,51.57 -317.47,55.57 -17.84,-7.96 -31.74,-23.82 -45.63,-35.74 23.81,-119.03 150.8,-95.24 228.18,-136.89 113.09,-1.99 232.12,11.91 325.36,-45.63 57.56,3.97 101.21,-37.7 126.99,-81.35 -35.72,-67.45 -125,-5.96 -180.55,0 -89.29,27.79 -174.59,59.53 -271.8,63.49 -13.89,-17.84 -23.82,-37.7 -19.85,-53.57l-7.94 -9.92c91.28,-140.88 271.83,-63.49 388.89,-136.91 103.17,25.81 156.74,-67.46 236.08,-99.2 11.93,-27.78 -17.85,-47.61 -35.71,-53.57 -71.41,45.64 -176.59,17.86 -244.04,71.43l-263.86 0c-27.79,-15.87 -29.78,-41.68 -27.79,-71.43 45.65,-79.36 150.8,-39.67 218.26,-37.7 15.86,13.89 47.61,13.89 63.47,0 51.59,-21.83 5.96,-99.2 73.41,-99.2 113.1,-5.95 230.16,-45.62 271.82,-154.75 -39.67,-73.41 -109.11,-9.92 -162.68,-17.85 -59.53,63.49 -164.7,21.83 -218.26,91.25 -63.47,-3.97 -123,3.99 -172.61,35.73 -43.66,13.89 -63.49,-19.85 -91.27,-45.64 -23.8,-55.55 41.68,-67.45 63.51,-99.2 121.02,-75.41 297.61,43.65 380.92,-99.2 -1.98,-23.82 -9.9,-49.6 -35.72,-55.56 -57.53,-33.74 -97.2,25.79 -154.73,19.83 -134.92,-35.71 -257.94,69.45 -371.02,-19.83 -5.98,-25.79 5.93,-47.61 25.77,-63.49 99.21,19.84 162.7,-49.61 236.11,-89.28 101.18,-47.64 192.46,55.57 281.73,-17.86 -5.93,-25.78 -33.71,-43.63 -63.49,-37.7 -21.82,-15.87 -25.78,-63.49 -63.49,-71.42 -115.06,53.56 -251.98,57.53 -390.86,53.56 -25.77,-15.85 -27.77,-43.64 -25.77,-71.42 37.7,-67.45 103.16,-61.49 162.69,-73.41 138.88,-29.76 349.18,37.7 398.78,-127 -57.53,-61.49 -113.06,53.57 -190.45,27.79 -37.71,23.82 -87.31,49.6 -134.92,25.78 -35.71,-11.88 -11.92,-47.61 -19.85,-71.41 89.28,-89.28 263.87,29.78 337.28,-99.21 2,-23.79 -15.85,-39.67 -9.92,-65.46 49.61,-47.63 130.94,-15.88 182.55,-63.49 67.45,-11.9 154.76,0 190.47,-81.35 -19.85,-19.84 -23.81,-55.57 -55.55,-63.49 -127,5.96 -218.27,95.23 -345.25,101.19 -49.58,-25.8 -3.96,-194.43 -109.1,-119.05 -31.75,31.74 -59.53,71.43 -107.14,63.5 -41.67,-17.86 -23.81,-59.53 -27.77,-91.27 91.24,-115.08 236.08,-119.04 370.99,-99.21 67.48,47.64 168.66,25.81 246.03,17.86 31.77,-9.91 45.65,-45.65 53.57,-71.43 -7.92,-37.71 -49.59,-41.67 -81.33,-45.63 -125,29.78 -265.87,15.88 -390.86,45.63 -37.71,5.96 -67.46,-9.92 -81.34,-37.71 5.93,-21.82 -9.94,-51.57 17.85,-63.46 160.7,7.93 281.72,-178.58 436.49,-71.44 29.74,-9.91 61.49,-13.9 81.35,-45.65 -35.73,-27.75 -71.43,-53.57 -109.14,-81.35 -33.71,-25.78 -65.45,5.96 -99.19,7.96 -121.03,-19.85 -249.99,105.14 -345.22,-17.85 -3.96,-63.49 71.41,-55.56 99.2,-99.21 150.78,-33.74 313.47,37.69 436.49,-63.49 19.82,-13.89 27.78,-35.71 35.7,-53.57 -35.7,-55.55 -101.19,-13.88 -144.84,0 -49.59,37.69 -115.06,37.69 -180.55,35.72 -13.88,-15.89 -37.7,-29.78 -27.76,-55.56 85.29,-128.96 279.74,-2 353.15,-152.77 27.79,3.96 47.61,-7.94 63.49,-27.78 7.94,-29.75 -9.92,-57.53 -35.7,-63.49 -91.28,19.84 -200.4,-1.98 -289.67,17.84 -27.78,-15.85 -29.77,-43.63 -27.78,-71.41 37.7,-53.57 113.08,-11.9 162.68,-37.71 43.65,-31.74 109.14,-7.94 144.85,-53.56 -15.89,-93.24 -232.13,3.96 -134.93,-126.98 49.61,-45.65 170.63,-11.91 154.77,-119.04 67.47,-49.6 79.35,-154.77 170.63,-162.69 75.39,33.71 55.53,115.06 45.64,172.62l-99.21 109.11c37.69,43.66 109.1,69.44 172.59,45.62 11.93,15.9 35.72,3.97 45.64,25.79 0,21.85 3.97,43.66 -17.86,55.57 -57.53,15.88 -158.69,-39.69 -172.61,45.62 41.67,53.57 194.44,-5.92 152.8,109.14 57.53,69.45 190.44,-77.39 182.52,63.49l-35.71 35.71c-101.18,29.75 -232.12,-65.49 -281.73,45.64 37.67,63.49 122.99,21.82 162.67,81.35 121.06,-73.42 170.65,99.2 289.67,27.77 11.93,19.83 53.57,21.82 37.72,63.47l-27.78 25.82c-95.24,-2 -206.34,11.89 -271.82,-45.64 -35.73,-27.79 -103.18,-19.86 -144.85,-7.93 -9.9,17.85 -29.74,43.63 -9.9,63.49 39.68,51.57 71.43,-25.81 119.02,-9.92 63.51,164.65 311.51,-29.78 343.26,172.61 -39.67,47.61 -119.03,25.79 -172.63,17.86 -83.32,-85.31 -194.43,-21.85 -297.61,-53.6 -15.86,-7.92 -25.78,7.96 -37.67,17.89 25.79,41.64 89.28,67.43 144.84,73.39 85.3,87.31 234.1,9.93 317.42,99.21 91.27,-19.83 140.88,-140.88 253.98,-109.14 121.02,11.92 206.33,-57.53 327.35,-45.61 79.39,-45.63 -35.7,-85.31 0,-134.94 111.13,19.86 176.59,-71.41 281.75,-63.49 21.82,-3.96 25.78,-27.75 25.78,-45.61 -57.53,-29.78 -130.94,13.9 -190.47,35.71 -73.39,33.72 -162.68,41.68 -234.11,81.35 -89.28,-11.92 -162.69,15.86 -236.09,35.71 -17.86,-23.81 -63.49,-39.67 -45.64,-81.34 49.6,-47.64 128.96,-29.78 180.56,-71.43 87.28,3.96 152.77,-41.67 228.15,-63.49 49.6,-71.44 105.17,-174.62 216.27,-144.84 43.66,-29.78 123.02,-9.92 136.9,-73.41 -73.41,-97.22 -168.65,21.81 -263.9,9.92 -55.53,59.53 -134.9,67.45 -216.25,71.41 -45.62,-19.84 -41.66,-75.37 -27.76,-109.12 15.87,-5.94 5.93,-23.78 7.93,-35.7 -21.83,-37.69 -59.53,-41.65 -89.28,-17.86 -63.49,31.74 -91.27,126.98 -172.62,91.27 -19.85,-27.78 -39.7,-67.45 -17.85,-101.2 111.1,-184.52 349.18,-140.84 515.83,-109.13 89.31,19.86 228.19,51.6 299.61,-25.79 17.86,-29.74 17.86,-61.49 0,-91.27 -51.59,-47.61 -109.12,-25.78 -172.61,-17.84 -97.22,49.59 -194.45,17.84 -307.55,27.76 -63.46,9.94 -150.77,19.86 -208.3,-9.92 -5.96,-35.71 3.96,-67.45 35.71,-91.24 176.59,45.63 249.98,-172.63 426.57,-126.98 63.49,15.85 144.84,47.59 208.33,9.92 9.92,-17.86 17.85,-35.71 27.78,-55.57 -43.68,-47.62 -144.84,-7.92 -144.84,-99.19 -61.49,1.99 -134.92,29.75 -200.41,45.63 -107.12,17.86 -263.86,49.6 -353.14,-27.79 23.79,-144.84 196.42,-130.94 307.52,-162.68 154.76,21.82 335.31,13.88 416.66,-126.98 -37.72,-107.14 -115.06,5.95 -170.63,9.92 -95.23,9.92 -190.48,79.37 -291.68,25.78 -13.87,-47.61 21.86,-81.35 55.57,-99.19 140.88,-3.98 289.68,-9.91 371.02,-136.89 43.64,0 99.21,7.92 119.04,-35.72 -105.14,-125.02 -321.4,-19.85 -454.36,-91.28 3.97,-31.74 -13.88,-71.41 27.79,-89.27 130.94,37.69 200.4,-71.45 325.39,-45.63 17.86,-5.96 41.66,-27.78 45.64,-45.65 -51.6,-75.37 -174.59,1.99 -208.33,-99.19l9.92 -9.92c-19.86,-9.91 2,-25.79 7.93,-35.71 59.52,-41.68 144.84,-37.69 190.48,-91.28 1.97,-63.47 -11.9,-130.92 45.63,-172.6 11.9,-130.95 -53.57,-242.06 -17.86,-371.02 19.83,-31.75 75.39,-103.16 109.1,-37.71 17.89,146.84 -55.53,299.61 99.23,390.88 11.9,63.49 -15.88,89.28 -45.63,136.89 -1.99,57.53 -115.09,103.16 -35.71,162.68 39.67,37.71 113.09,-1.96 154.74,35.71 37.7,-3.96 99.19,-29.75 126.98,17.86 0,79.37 -91.28,63.49 -136.9,91.28 -45.62,9.92 -107.14,-21.83 -136.89,27.78 43.65,121.02 341.26,-27.78 192.45,152.76 -7.94,23.82 19.84,41.67 35.71,45.65 71.41,-21.83 160.72,-93.26 236.11,-25.82 19.83,53.59 -45.64,55.57 -63.49,89.31 -113.09,59.5 -277.76,-45.65 -355.15,55.53 -3.96,31.75 15.86,61.53 45.64,71.45 73.4,-17.86 119.03,31.71 172.6,63.49 134.92,-47.63 214.29,93.24 335.31,19.83 31.74,0 47.61,35.7 73.43,53.57 7.92,25.8 -13.9,37.7 -27.79,53.56 -119.05,9.93 -269.82,31.75 -363.09,-53.56 -77.39,-3.97 -162.71,-35.71 -218.24,27.78 -7.96,21.81 19.83,29.75 27.78,45.63 75.4,21.82 166.67,-55.57 200.38,43.64 130.94,25.79 281.74,11.92 380.96,119.06 -7.96,33.71 19.81,81.34 -27.79,99.2 -69.45,-3.96 -117.06,-69.45 -198.41,-45.65 -39.67,-21.81 -83.35,-85.3 -126.98,-35.7 -95.23,3.96 -186.51,-3.97 -273.8,-27.79l-25.8 27.79c37.7,75.39 126.98,69.43 198.41,81.35 79.37,51.57 158.72,158.72 263.88,99.2 37.7,-12.58 66.48,-2.79 93.66,10.21 14.5,-3.3 29.8,-5.61 45.8,-6.79 225.49,-16.47 -41.09,-86.03 131.97,-125.06 187.33,53.51 256.91,-181.99 438.85,-144.56 69.58,-198.02 283.68,-42.77 369.34,-198.02 -16.08,-187.28 -230.17,-117.7 -342.58,-171.27 -37.43,-171.25 139.17,-192.68 219.43,-315.77 96.34,10.68 176.66,-10.67 246.25,-74.92 16.01,-53.51 -32.15,-80.25 -53.57,-123.09 -206.58,-15.58 -389.81,-93.82 -147.18,-260.43 109.44,21.17 99.48,-16.32 78.23,-60.06 -72.98,-150.07 167.81,-185.1 122.52,-434.2 16.01,-96.29 -42.83,-235.46 48.17,-272.95 64.19,-21.41 101.68,37.49 144.51,74.93 -5.4,69.57 21.41,144.51 -21.42,198.02 41.14,115.24 309.09,170.38 171.27,342.58 -121.96,145.27 234.87,52.52 192.67,171.27 182.01,1.38 379.38,179.83 129.99,219.99 -188,-0.83 -147.31,96.27 -108.44,167.91 26.24,48.41 51.68,85.19 5.21,72.38 -256.92,192.68 165.92,101.66 96.33,294.34 -0.64,6.02 -1.02,11.88 -1.22,17.62l299.96 -78.04 223.81 10.79c56.63,-26.96 80.91,-88.99 121.34,-134.82 129.44,-24.26 326.26,62.02 382.9,-86.27 94.38,-2.73 167.18,18.85 245.36,-24.26 72.8,-45.86 102.46,-129.45 86.29,-221.14 -67.42,-43.13 -153.71,-56.61 -134.81,-161.77l-10.81 -10.79c-59.31,150.98 -264.25,8.09 -345.14,121.34 -102.46,-59.33 -245.37,80.9 -310.08,-72.8 -21.58,-110.55 29.66,-151 110.56,-196.84 169.86,-2.68 288.52,-126.75 469.18,-99.76 97.08,-67.42 269.62,-48.54 248.06,-221.14 -13.47,-21.56 -13.47,-45.84 -37.75,-62.01 -24.26,10.79 -43.16,35.07 -75.5,24.28 -29.64,-21.58 10.79,-70.12 -35.05,-86.29 -51.22,32.37 -78.21,129.45 -161.77,75.5 -13.51,13.47 -35.06,13.47 -48.54,35.05 -94.37,-32.37 -221.14,5.41 -307.41,62.01 -78.18,40.47 -129.44,-83.59 -186.05,13.49 -37.74,5.4 -64.73,-10.79 -86.28,-37.75 -8.09,-129.4 140.21,-134.83 210.32,-196.84 129.43,-64.69 277.73,-70.1 407.17,-134.81 118.61,26.97 202.23,-40.43 293.9,-86.28 10.79,-21.58 -10.79,-35.06 -24.28,-51.23 -97.06,26.97 -148.28,-97.07 -245.36,-35.04 -83.59,75.48 -229.18,2.68 -320.88,62.01 -26.96,0 -59.33,5.37 -72.8,-26.97 0,-26.98 -8.11,-56.64 24.26,-72.81 32.37,2.7 72.8,-8.09 97.08,13.49 62.01,-56.63 126.73,-102.49 210.33,-99.79 91.66,-45.81 215.72,-97.06 245.36,-210.31 -64.72,-59.32 -145.6,0 -207.61,24.27 -124.06,0 -253.46,56.64 -369.42,0 -5.38,-137.51 177.97,-40.44 258.86,-86.29 53.92,-72.8 161.79,-48.53 196.83,-148.28 -40.46,-35.07 -186.07,35.05 -172.55,-86.29 91.66,-72.8 229.17,-64.74 293.89,-183.38 -26.94,-70.09 -183.35,37.78 -172.55,-86.28 62.01,-124.02 213,-53.92 272.33,-161.79 56.63,-180.65 -175.26,-334.35 13.47,-479.97 37.73,-2.68 75.51,0 97.06,37.77zm3213.62 4217.44c5.06,63.34 -23.47,88.99 -64.64,102.74 7.73,3.47 15.21,7.28 22.41,11.46 37.7,-13.89 67.45,-49.59 117.06,-35.71 150.8,-91.27 373.01,-3.96 517.84,-109.13 19.84,-19.83 2,-47.6 -17.86,-63.49 -31.75,-15.85 -77.36,-11.89 -109.11,0 -93.27,81.35 -257.93,-13.89 -345.23,81.35 -41.71,3.29 -82.2,13.27 -120.47,12.78zm-275.94 187.37c-4.37,7.22 -8.2,15.22 -11.29,24.21 32.46,76.89 87.31,110.01 151.7,126.1 23.86,-13.06 48.83,-22.42 75.45,-15.15 99.2,-63.49 255.93,-15.88 335.31,-107.14 -43.67,-15.88 -81.35,-43.66 -126.99,-55.55 -51.59,57.53 -134.91,39.67 -200.39,63.49 -63.16,-40.87 -161.09,5.18 -223.79,-35.96zm577.43 324.41c-9.92,352.43 -394.64,5.11 -566.27,187.8 47.85,51.96 108.05,83.57 173.83,106.4 12.57,-2.38 25.52,-2.88 38.8,-1.33 154.76,-21.81 327.38,5.97 436.5,-119.04 37.69,-5.94 89.28,15.88 117.06,-17.86 -3.96,-81.35 75.39,-85.32 109.14,-144.84 -53.6,-176.56 -160.73,29.78 -263.9,-9.89 -15.44,0.64 -30.45,0.13 -45.16,-1.24zm213.41 623.32c15.51,10.91 31.84,20.89 48.65,29.25 3.79,-1.92 7.54,-4.07 11.26,-6.53 35.74,-41.66 71.44,-93.27 53.6,-144.84 -17.86,-1.99 -35.74,-33.74 -53.6,-9.92 -39.25,32.96 -23.87,103.16 -59.91,132.04zm3135.95 2209.6c-24.32,-66.11 -104.32,-111.88 -165.42,-137.35 -30.06,-0.32 -59.54,0.77 -88.57,2.53l253.99 134.82zm-311.48 -165.33c12.74,-1.98 25.7,-4.51 38.93,-7.74 33.72,-15.85 25.78,-51.57 25.78,-81.33 -61.49,-47.61 -156.73,-15.87 -216.25,-63.49 -55.66,-127.91 -195.46,-100.3 -323.17,-99.45l474.71 252.01zm-3028.43 -2963.98c63.49,27.77 168.66,19.83 246.01,7.94 15.89,-13.9 9.93,-39.68 0,-53.57 -83.32,-39.67 -182.52,-13.88 -246.01,45.63zm571.4 380.93c33.74,57.53 134.92,35.72 200.4,53.57 176.59,75.42 345.22,190.48 543.62,180.55 91.27,11.93 174.62,132.95 263.89,27.78 23.83,-29.75 53.57,-49.59 89.28,-53.57 101.21,-49.59 158.74,140.88 236.12,7.94 41.65,-3.96 73.39,-19.83 81.35,-63.49 -4,-35.72 -21.86,-73.4 -53.6,-89.28 -107.12,33.74 -222.19,37.71 -317.44,99.2 -132.94,55.57 -188.47,-107.14 -317.45,-35.71 -121.02,55.55 -176.59,-95.23 -281.73,-109.13 -134.9,-27.78 -305.56,29.78 -416.66,-55.54l-27.78 37.68zm1053.56 406.74c-53.6,41.67 -117.06,0 -172.63,0 -188.47,77.39 -418.62,87.31 -617.04,27.78 -45.62,-11.91 -105.15,-69.45 -144.84,-9.92 -11.91,27.78 17.86,47.63 35.71,55.57 123.03,1.96 240.08,19.81 335.33,91.27 45.6,15.85 103.16,1.97 136.87,45.6 93.27,5.96 198.41,-25.79 253.97,71.46 13.89,43.63 -17.86,55.53 -45.64,73.38 -190.47,29.78 -367.06,-57.53 -535.69,0 -15.88,3.96 -27.78,37.7 -7.92,53.57 71.41,43.66 148.8,-5.93 226.16,27.78 67.48,87.31 160.72,142.85 261.9,117.06 115.08,-51.57 -35.72,-150.77 91.27,-190.47 109.12,1.98 222.22,-9.91 309.5,45.63 37.7,-1.97 67.48,-27.78 81.35,-63.49 -5.93,-53.57 5.96,-101.18 25.82,-144.81 -67.47,15.85 -115.1,77.36 -198.41,53.57 -43.67,-51.61 -107.16,-55.57 -154.77,-99.22 -45.64,39.69 -109.13,39.69 -172.62,35.73 -7.93,-17.87 -29.75,-41.69 -7.93,-63.51 126.98,-103.16 331.35,-17.85 462.3,-109.12 67.45,-1.99 150.77,11.89 190.45,-43.65 -45.64,-89.3 -134.92,15.87 -218.24,-19.84 -61.52,-23.82 -85.31,43.63 -134.9,45.63zm597.18 218.25c-5.93,29.77 9.92,49.61 37.71,55.54 11.9,3.98 17.86,-11.89 25.78,-19.81 2,-27.79 -35.71,-63.49 -63.49,-35.73zm-216.26 45.65c3.97,19.82 35.71,37.67 53.57,17.86 17.85,-11.93 5.96,-35.72 -9.9,-45.65 -9.92,15.87 -35.74,5.93 -43.67,27.79zm297.61 289.65c59.53,23.82 138.87,-7.92 190.47,27.78l9.92 -9.92c-11.91,-37.69 -69.44,-27.78 -99.19,-17.86 -31.75,-23.79 -97.23,-71.43 -101.2,0zm-787.67 45.63c3.97,23.82 9.93,45.64 7.93,73.43 -71.42,55.56 -180.55,5.95 -271.82,7.92 -113.08,-39.67 -230.14,-67.45 -353.15,-81.35 -27.78,-21.81 -71.41,-11.89 -99.19,-27.77 -15.9,11.92 -43.67,11.92 -45.65,37.71 3.98,67.45 89.28,53.56 134.92,81.33 140.88,21.83 285.71,31.75 436.49,27.78 47.63,67.47 136.91,31.75 190.47,89.28 55.54,-15.88 109.14,33.73 152.77,-7.92 -2,-43.67 -43.63,-103.16 9.94,-136.91 91.27,-5.97 228.14,27.77 289.67,-63.5 0,-33.71 -31.75,-33.71 -53.59,-45.63 -71.43,11.92 -130.93,73.41 -208.31,37.7 -53.59,-53.56 -152.79,-61.49 -190.48,7.93zm734.1 154.78c5.96,33.71 29.75,55.53 63.49,63.49 35.71,-2 77.39,5.93 109.14,-9.94 -79.39,13.9 -111.1,-152.77 -172.63,-53.55zm-1235.89 353.03c51.28,-3.06 101.79,-7.83 146.66,-7.83 77.35,-63.49 204.33,-31.74 299.57,-27.78 101.21,53.6 186.51,138.91 309.54,134.95 9.89,19.83 41.64,27.75 35.71,55.53 -77.39,67.46 -188.51,53.57 -281.76,81.35 -29.81,-4.03 -59.76,-8.21 -89.47,-13.13l-420.25 -223.09zm964.07 363.21c11.92,9.92 19.84,25.78 35.71,17.84 3.96,-17.84 33.74,-39.67 0,-53.55l-35.71 35.71zm-3679.76 -2922.78c-111.08,-64.16 -187.51,-210.69 -342.54,-168.19 -62.05,-91.7 -145.6,-59.33 -234.6,-48.54 -21.58,13.48 -26.98,35.06 -24.28,59.32 53.95,91.67 172.56,26.96 234.61,99.76 45.82,5.38 91.67,16.17 121.34,62.01 -26.98,80.91 40.45,137.51 99.76,159.09 164.46,2.7 361.33,21.57 417.93,172.57 5.71,6.69 11.81,12.28 18.23,16.96 16.94,-11.92 32.08,-28.26 44.59,-50.92 -16.84,-196.28 -241.22,-123.35 -359.04,-179.5 -123.9,7.87 -160.66,-202.93 -20.71,-108.87 15.85,10.65 31.04,1.55 44.71,-13.69zm36.23 408.07c-41.66,-53.38 -80.03,-104.79 -157.68,-58.55 -24.26,8.08 -43.16,32.34 -72.8,24.28 -72.8,-80.91 -215.71,13.44 -272.36,-110.59 -40.43,-35.03 -83.57,8.11 -124.02,10.79l-59.31 75.52c107.55,102.24 240.45,171.1 372.36,240.41 65.83,-49.25 131.31,-99.73 225.54,-80.33 19.99,-56.91 51.4,-85.95 88.27,-101.53zm-5237.97 1341.69c328.53,-214.08 881.12,35.3 1066.82,-416.31l-53.56 -48.18c-171.26,-16.07 -315.77,26.77 -438.86,123.1 -41.06,7.7 -85.5,14.77 -131.54,19.98 2.51,4.08 5,8.23 7.45,12.5 -82.71,26.1 51.56,77.25 -133.18,75.04 -101.21,-19.84 -119.06,103.17 -210.33,109.13 -71.43,-17.86 -37.69,-95.23 -71.43,-134.92l-55.55 71.43c-87.3,7.93 -170.63,31.75 -234.12,99.2 -89.28,-2 -51.57,-103.18 -101.18,-144.84 -17.86,-23.82 -35.74,7.92 -53.6,9.92 -17.84,51.57 17.86,103.17 53.6,144.84 87.28,57.53 198.41,-37.7 271.79,45.64 33.29,-1.67 58.89,15.12 83.69,33.47zm30.26 -454.02c17.09,-20.48 39.9,-38.99 57.09,-58.64 337.19,10.68 652.96,-74.92 856.33,-342.52l-48.18 -48.17c-82.87,7.19 -158.46,31.38 -226.78,72.55 -13.28,21.52 -32.18,31.44 -53.47,36.85 -13.96,10.9 -27.58,22.61 -40.85,35.1 -32.88,6.16 -67.93,11.92 -104.25,16.69l-0.26 0.38 -3.27 0.08c-49.84,6.43 -101.99,10.97 -154.11,12.04 -16.4,0.7 -32.69,0.79 -48.62,-0.08 -69.32,-1.68 -137.32,-10.39 -198.41,-29.9 -61.98,18.17 -123.15,38.62 -192.8,35.72 -103.17,39.67 -210.3,-166.66 -263.9,9.89 33.75,59.53 113.1,63.49 109.14,144.85 27.78,33.74 79.37,11.91 117.06,17.86 53.16,60.9 121.38,85.52 195.28,97.3zm182.38 -487.49c89.89,-14.48 173.54,-43.84 248.48,-93.9 -60.38,14.01 -137.06,-12.22 -189.64,21.81 -65.48,-23.82 -148.8,-5.96 -200.39,-63.49 -45.64,11.89 -83.32,39.67 -126.99,55.55 63.18,72.63 175.38,57.29 268.54,80.03zm293.77 -127.63c42.11,-34.8 81.02,-77.26 116.14,-128.62 107.04,-37.45 230.18,-26.76 321.13,-96.35 64.23,-53.51 -16.02,-112.35 -48.18,-149.84 -45.02,-75 -196.47,-181.4 -315.3,-59.83 -37.09,37.95 -137.49,16.03 -251.99,108 -292.73,-10.25 -32.37,-77.26 -40.31,-115.9 -5.63,-27.31 -231.85,-39.38 -258.82,-45.76 -43.97,-10.43 -57.05,-38.03 -46.7,-68.55 -93.38,-15.53 -202.01,3.79 -274.37,-58.22 -37.7,11.9 -79.37,51.57 -91.27,91.24 -2,39.7 -2,83.35 37.69,107.14 87.29,-33.71 126.98,115.09 208.33,45.64 65.49,-21.82 128.98,-81.35 208.33,-45.64 83.33,99.23 214.26,117.09 335.31,91.27 31.75,-33.71 85.32,-11.88 126.98,-17.86 37.68,21.86 45.62,65.5 27.76,99.21 -61.5,71.42 -174.59,15.89 -253.95,45.63 -61.52,51.61 -132.94,23.82 -208.33,17.87 -87.3,-95.24 -251.96,0 -345.23,-81.36 -31.75,-11.88 -77.36,-15.85 -109.11,0 -19.86,15.9 -37.7,43.67 -17.86,63.49 144.83,105.18 367.04,17.87 517.84,109.14 49.61,-13.89 79.36,21.82 117.06,35.71 61.5,-35.71 144.84,-45.63 218.23,-25.79 35.67,16.05 24.88,49.68 26.62,79.38zm-3731.52 3186.57c-9.71,-28.88 -23.59,-42.77 -68.78,-2.18 -15.54,27.23 -40.66,50.66 -62.19,72.13l-3.7 1.97c-38.41,10.08 -65.34,-17.15 -78.95,-46.32 3.96,-85.31 101.2,-142.84 172.63,-172.61 99.26,-1.08 192.05,13.09 283.84,17.31l-242.85 129.7zm3133.5 -3138.97c-63.49,27.77 -168.66,19.83 -246.01,7.94 -15.89,-13.9 -9.93,-39.69 0,-53.57 83.32,-39.67 182.52,-13.88 246.01,45.63zm-571.4 380.93c-33.74,57.53 -134.92,35.72 -200.4,53.56 -176.59,75.43 -345.22,190.49 -543.62,180.55 -91.27,11.94 -174.62,132.96 -263.89,27.79 -23.82,-29.75 -53.57,-49.6 -89.28,-53.57 -101.21,-49.59 -158.74,140.88 -236.12,7.94 -41.65,-3.97 -73.39,-19.83 -81.35,-63.49 4,-35.73 21.86,-73.4 53.6,-89.28 107.12,33.74 222.19,37.7 317.44,99.2 132.94,55.56 188.47,-107.14 317.45,-35.71 121.02,55.55 176.59,-95.23 281.73,-109.13 134.9,-27.79 305.56,29.78 416.66,-55.54l27.78 37.68zm-1053.56 406.74c53.6,41.66 117.06,0 172.63,0 188.47,77.39 418.63,87.31 617.04,27.78 45.62,-11.92 105.15,-69.45 144.84,-9.92 11.92,27.78 -17.86,47.62 -35.71,55.56 -123.03,1.97 -240.08,19.82 -335.33,91.28 -45.6,15.85 -103.16,1.96 -136.87,45.6 -93.27,5.95 -198.41,-25.79 -253.97,71.46 -13.89,43.63 17.86,55.53 45.64,73.38 190.47,29.78 367.06,-57.53 535.69,0 15.88,3.96 27.78,37.7 7.92,53.57 -71.41,43.66 -148.8,-5.93 -226.16,27.78 -67.48,87.31 -160.72,142.84 -261.9,117.06 -115.08,-51.57 35.72,-150.77 -91.27,-190.47 -109.12,1.98 -222.22,-9.91 -309.5,45.63 -37.7,-1.97 -67.48,-27.79 -81.35,-63.49 5.93,-53.57 -5.96,-101.18 -25.82,-144.82 67.47,15.85 115.1,77.36 198.41,53.57 43.67,-51.6 107.16,-55.56 154.77,-99.21 45.64,39.69 109.13,39.69 172.62,35.72 7.93,-17.86 29.75,-41.68 7.93,-63.5 -126.98,-103.16 -331.35,-17.85 -462.3,-109.12 -67.45,-2 -150.77,11.89 -190.45,-43.65 45.64,-89.31 134.92,15.87 218.24,-19.84 61.52,-23.82 85.31,43.63 134.9,45.63zm-597.18 218.25c5.93,29.76 -9.92,49.61 -37.71,55.54 -11.9,3.97 -17.86,-11.89 -25.78,-19.82 -2,-27.78 35.71,-63.49 63.49,-35.72zm216.26 45.64c-3.97,19.83 -35.71,37.68 -53.57,17.87 -17.85,-11.94 -5.96,-35.73 9.9,-45.65 9.92,15.87 35.74,5.93 43.67,27.78zm-297.61 289.66c-59.53,23.82 -138.87,-7.93 -190.47,27.78l-9.92 -9.92c11.91,-37.69 69.44,-27.78 99.19,-17.86 31.75,-23.79 97.23,-71.43 101.2,0zm787.67 45.63c-3.97,23.82 -9.93,45.64 -7.93,73.42 71.42,55.57 180.55,5.96 271.82,7.93 113.08,-39.67 230.14,-67.45 353.15,-81.35 27.78,-21.81 71.41,-11.89 99.19,-27.77 15.9,11.92 43.67,11.92 45.65,37.7 -3.98,67.46 -89.28,53.57 -134.92,81.34 -140.88,21.82 -285.71,31.74 -436.49,27.78 -47.63,67.47 -136.91,31.75 -190.47,89.28 -55.54,-15.88 -109.14,33.72 -152.77,-7.93 2,-43.66 43.63,-103.16 -9.94,-136.9 -91.27,-5.97 -228.14,27.77 -289.67,-63.5 0,-33.71 31.75,-33.71 53.59,-45.63 71.43,11.92 130.93,73.41 208.31,37.7 53.59,-53.57 152.79,-61.49 190.48,7.93zm-734.1 154.77c-5.96,33.72 -29.75,55.54 -63.49,63.49 -35.71,-1.99 -77.39,5.93 -109.14,-9.93 79.39,13.9 111.1,-152.77 172.63,-53.56zm271.82 716.24c-11.92,9.92 -19.84,25.79 -35.71,17.85 -3.96,-17.85 -33.74,-39.67 0,-53.56l35.71 35.71zm4568.67 -2358.93l337.9 -67.32c24.26,-129.43 194.14,-94.38 210.33,-223.81 -80.89,-99.77 -296.62,115.96 -272.34,-121.35 -72.82,-94.38 -156.39,13.51 -245.37,0 -40.44,15.63 -84.94,28.75 -130.97,37.43 -64.45,201.75 -380.32,-56.26 -528.88,101.88 157.77,171.32 456,111.03 629.33,273.17zm-570.91 -644.12c148.01,-54.66 285.48,-134.57 463.92,-113.48 113.24,-83.59 302,21.58 382.88,-137.53 80.89,-94.35 390.98,53.94 296.62,-159.09 -40.47,-48.54 -126.75,51.22 -161.81,-48.54 -88.97,75.48 -188.73,2.7 -283.11,48.54l-62.01 -75.5c-45.85,102.44 -196.84,53.94 -269.65,137.51 -53.93,-110.55 -183.35,-24.26 -234.59,-137.51 -45.49,-11.96 -83.53,7.96 -119.81,26.73 44.12,53.31 113.34,89.22 175.33,123.36 53.51,224.76 -214.09,85.6 -267.6,240.83 19.3,45.72 46.91,75.21 79.83,94.68zm1733.92 -1210.94l110.57 -13.47c48.54,156.4 223.79,-5.38 296.59,134.82 24.26,5.41 56.63,-8.1 75.51,13.47 -8.09,59.33 -86.3,37.75 -124.05,72.8 -124.03,37.75 -250.75,75.5 -358.62,148.33 -53.93,-8.09 -75.48,18.85 -121.32,-10.79 -86.29,-115.96 -191.45,-256.18 -148.32,-420.64 35.05,13.47 72.8,24.26 110.57,37.75l10.79 -13.49 13.47 13.49 62.03 -48.54c26.96,26.95 40.43,62.01 72.78,86.27zm666.03 466.5c21.59,37.75 37.75,97.08 13.47,137.51 -40.42,70.11 -105.16,10.78 -161.79,10.78 -153.68,40.45 -245.37,-64.69 -369.39,-97.06l-24.28 -24.28c142.92,-62.01 310.11,-86.28 469.18,-75.49l72.81 48.54zm-245.38 310.08c-78.19,99.74 -239.97,62.01 -345.15,121.34 -45.82,-2.7 -99.76,10.77 -137.49,-10.81 48.52,-153.68 269.62,2.73 334.33,-161.77 43.15,35.07 132.14,-21.56 148.31,51.24zm-531.21 48.52c-10.76,29.67 -53.92,29.67 -72.77,13.49 -24.28,-16.17 -29.68,-40.45 -13.51,-62.01 35.06,-59.33 91.69,8.09 86.28,48.52zm617.51 221.14c48.52,-21.58 118.61,-35.06 172.55,-10.79 -2.68,18.85 21.59,26.96 10.8,48.54 -102.47,83.57 -285.82,-16.17 -380.21,86.27 -64.71,0 -126.72,-40.46 -161.77,-86.27 107.85,-72.81 231.88,-78.23 358.63,-37.75zm-914.1 396.34c-43.13,53.95 -97.08,0 -145.62,0 -29.67,-29.65 -91.65,-35.05 -86.27,-86.28 8.07,-21.55 10.79,-40.42 35.06,-51.23 40.44,107.86 256.16,-13.47 196.83,137.51z"/>
  </g>
 </g>
</svg>
